Coordinates
version=1
nRows=73
nColumns=4
inDegrees=yes

Units are S.I. units (second, meters, Newtons, ...)
Angles are in degrees.

endheader
time	Hip_Angle	Knee_Angle	Ankle_Angle
      6.42500000	    118.96193196	    -73.61073225	    -55.04504352
      6.43333333	    118.97393542	    -73.61931418	    -54.97478348
      6.44166667	    118.96279825	    -73.63217740	    -54.92091315
      6.45000000	    119.02167721	    -73.61297425	    -54.85111795
      6.45833333	    118.83264912	    -73.69712027	    -54.82277510
      6.46666667	    118.83158271	    -73.71702077	    -54.77448605
      6.47500000	    118.90335892	    -73.69709102	    -54.70383653
      6.48333333	    118.88499648	    -73.77780883	    -54.70011228
      6.49166667	    118.89927161	    -73.82686874	    -54.67483366
      6.50000000	    118.92907646	    -73.85873762	    -54.63359908
      6.50833333	    118.90769173	    -73.92127309	    -54.60507335
      6.51666667	    118.91627205	    -73.96465587	    -54.57421947
      6.52500000	    118.90868484	    -74.00523489	    -54.54327051
      6.53333333	    118.84464315	    -74.05837744	    -54.52223722
      6.54166667	    118.84542134	    -74.07793951	    -54.48423503
      6.55000000	    118.70615162	    -74.14130886	    -54.45446033
      6.55833333	    118.83287600	    -74.12229395	    -54.40884620
      6.56666667	    118.70473192	    -74.16456290	    -54.36719725
      6.57500000	    118.76006199	    -74.15279055	    -54.30787898
      6.58333333	    118.83955426	    -74.16179702	    -54.27250978
      6.59166667	    118.82246232	    -74.20951362	    -54.24855424
      6.60000000	    118.68328397	    -74.29810232	    -54.23389791
      6.60833333	    118.71857690	    -74.35417967	    -54.22197936
      6.61666667	    118.66466457	    -74.44583295	    -54.23140637
      6.62500000	    118.68386967	    -74.48404448	    -54.20298721
      6.63333333	    118.63177244	    -74.55604540	    -54.19952982
      6.64166667	    118.58096210	    -74.61341910	    -54.17919045
      6.65000000	    118.68945865	    -74.60255084	    -54.13063478
      6.65833333	    118.54393329	    -74.67104969	    -54.10910093
      6.66666667	    118.54761913	    -74.69292259	    -54.08323203
      6.67500000	    118.51713412	    -74.72824985	    -54.07300050
      6.68333333	    118.53167714	    -74.73996706	    -54.04841951
      6.69166667	    118.64813240	    -74.73096909	    -54.02280469
      6.70000000	    118.55345660	    -74.77243519	    -54.00774973
      6.70833333	    118.52397595	    -74.81632795	    -54.00645971
      6.71666667	    118.62349752	    -74.83735235	    -54.00833137
      6.72500000	    118.42989852	    -74.95243134	    -54.03857736
      6.73333333	    118.63097198	    -74.85747291	    -53.96853921
      6.74166667	    118.74903536	    -74.85631995	    -53.96005820
      6.75000000	    118.59950434	    -74.92197746	    -53.96463063
      6.75833333	    118.70948486	    -74.90479444	    -53.94240749
      6.76666667	    118.69533183	    -74.91791628	    -53.93254233
      6.77500000	    118.60849672	    -74.92117114	    -53.90700001
      6.78333333	    118.61380717	    -74.91517463	    -53.89229163
      6.79166667	    118.61006072	    -74.91044190	    -53.88122280
      6.80000000	    118.59723634	    -74.91349039	    -53.87550929
      6.80833333	    118.38843227	    -75.04693195	    -53.93913723
      6.81666667	    118.36157379	    -75.06894412	    -53.94749391
      6.82500000	    118.34329131	    -75.10433186	    -53.96644811
      6.83333333	    118.22510517	    -75.18917473	    -54.00597430
      6.84166667	    118.22732144	    -75.21529841	    -54.01880029
      6.85000000	    118.19915276	    -75.22995854	    -54.01674697
      6.85833333	    118.22510920	    -75.23690921	    -54.01999825
      6.86666667	    118.22127270	    -75.22998517	    -54.01282923
      6.87500000	    118.21644358	    -75.21711275	    -54.00211770
      6.88333333	    118.23638812	    -75.18541095	    -53.97866011
      6.89166667	    118.24887044	    -75.15862968	    -53.96262956
      6.90000000	    118.31657506	    -75.10023315	    -53.92921525
      6.90833333	    118.33547278	    -75.08549304	    -53.91911986
      6.91666667	    118.34529567	    -75.07985171	    -53.91372727
      6.92500000	    118.45670691	    -75.05694758	    -53.90590505
      6.93333333	    118.43240064	    -75.08653200	    -53.91919111
      6.94166667	    118.43618382	    -75.09780083	    -53.92053519
      6.95000000	    118.45918126	    -75.09591815	    -53.91743225
      6.95833333	    118.48511586	    -75.09332550	    -53.91273653
      6.96666667	    118.50802944	    -75.08801641	    -53.90499574
      6.97500000	    118.52969149	    -75.07132696	    -53.89126462
      6.98333333	    118.55525504	    -75.05237767	    -53.87526808
      6.99166667	    118.51616355	    -75.02476672	    -53.84846927
      7.00000000	    118.54904764	    -74.99481633	    -53.82738588
      7.00833333	    118.57603637	    -74.96666858	    -53.80645450
      7.01666667	    118.61158492	    -74.93904708	    -53.78590475
      7.02500000	    118.62953282	    -74.91885382	    -53.77019251
